<?xml version="1.0" standalone="no"?>
<!DOCTYPE svg PUBLIC "-//W3C//DTD SVG 20010904//EN"
 "http://www.w3.org/TR/2001/REC-SVG-20010904/DTD/svg10.dtd">
<svg version="1.0" xmlns="http://www.w3.org/2000/svg"
 width="700.000000pt" height="700.000000pt" viewBox="0 0 700.000000 700.000000"
 preserveAspectRatio="xMidYMid meet">
<metadata>
Created by potrace 1.14, written by Peter Selinger 2001-2017
</metadata>
<g transform="translate(0.000000,700.000000) scale(0.100000,-0.100000)"
fill="#000000" stroke="none">
<path d="M1146 6989 c-567 -66 -1009 -477 -1123 -1044 -17 -85 -18 -210 -18
-2445 0 -2235 1 -2360 18 -2445 108 -534 498 -924 1032 -1032 85 -17 210 -18
2450 -18 2221 0 2365 1 2447 18 262 53 483 171 669 356 150 151 253 320 317
521 60 192 57 36 57 2605 0 2221 -1 2365 -18 2447 -53 262 -171 483 -356 669
-181 180 -384 291 -646 352 l-90 21 -2335 2 c-1284 1 -2366 -2 -2404 -7z
m2064 -1269 c516 -63 973 -350 1252 -785 l45 -70 94 -30 c274 -87 577 -291
759 -512 235 -284 353 -584 367 -929 14 -362 -77 -668 -286 -964 -77 -109
-206 -247 -294 -315 l-65 -50 -143 -314 c-128 -281 -148 -319 -193 -365 -113
-115 -270 -144 -413 -76 -70 33 -97 59 -259 255 l-126 152 -86 7 c-116 9 -309
49 -418 86 -207 71 -470 226 -601 352 l-42 41 -38 -35 c-148 -133 -375 -122
-510 26 -41 45 -70 100 -188 360 -119 263 -144 311 -175 334 -68 51 -223 208
-285 287 -417 534 -444 1243 -68 1809 139 209 402 440 636 557 181 91 415 162
607 182 79 8 351 6 430 -3z"/>
<path d="M2850 5414 c-362 -43 -654 -178 -885 -409 -244 -243 -375 -547 -375
-871 0 -201 36 -359 124 -539 90 -185 196 -317 359 -448 51 -41 98 -81 104
-89 7 -7 77 -157 156 -333 80 -176 151 -324 159 -329 28 -17 63 4 118 71 154
192 272 329 292 342 13 8 82 19 168 27 169 15 268 34 394 76 398 133 726 450
850 820 51 150 60 211 59 398 0 156 -3 185 -26 272 -53 200 -130 354 -251 503
-199 247 -493 420 -825 486 -93 18 -345 32 -421 23z m730 -1156 c55 -38 75
-73 75 -133 0 -60 -20 -95 -75 -132 l-33 -23 -559 0 c-631 0 -608 -3 -653 75
-50 84 -16 187 75 227 8 4 267 7 576 7 l561 1 33 -22z"/>
<path d="M4664 4443 c70 -323 30 -662 -115 -972 -178 -380 -522 -688 -942
-845 -151 -56 -381 -105 -499 -106 -42 0 -49 -4 -77 -39 l-31 -39 57 -52 c116
-104 289 -207 438 -263 151 -56 361 -97 501 -97 94 0 107 -10 294 -234 171
-205 190 -222 227 -198 6 4 76 149 155 322 78 173 150 324 158 335 8 11 49 47
90 80 205 163 348 360 429 587 52 148 66 235 65 408 -1 265 -72 488 -221 699
-56 80 -185 215 -269 282 -61 48 -239 159 -257 159 -5 0 -6 -12 -3 -27z"/>
</g>
</svg>
